<svg width="79" height="85" viewBox="0 0 79 85" fill="none" xmlns="http://www.w3.org/2000/svg">
<path d="M0 24.1748H57.4151C52.6064 24.1748 47.9947 26.085 44.5945 29.4852C41.1942 32.8855 39.284 37.4972 39.284 42.3058V42.6866C36.6889 43.3567 34.39 44.8703 32.749 46.9894C31.1079 49.1085 30.2178 51.713 30.2185 54.3932V72.5243H15.1092C11.102 72.5243 7.25892 70.9324 4.42539 68.0989C1.59186 65.2654 0 61.4223 0 57.4151V24.1748ZM72.5243 15.1092C72.5243 11.102 70.9324 7.25892 68.0989 4.42539C65.2654 1.59186 61.4223 0 57.4151 0H15.1092C11.102 0 7.25892 1.59186 4.42539 4.42539C1.59186 7.25892 0 11.102 0 15.1092V18.1311H72.5243V15.1092ZM45.3277 42.3058V48.3495H42.3058C40.703 48.3495 39.1657 48.9863 38.0323 50.1197C36.8989 51.2531 36.2622 52.7903 36.2622 54.3932V78.568C36.2622 80.1709 36.8989 81.7081 38.0323 82.8415C39.1657 83.975 40.703 84.6117 42.3058 84.6117H72.5243C74.1272 84.6117 75.6644 83.975 76.7978 82.8415C77.9313 81.7081 78.568 80.1709 78.568 78.568V54.3932C78.568 52.7903 77.9313 51.2531 76.7978 50.1197C75.6644 48.9863 74.1272 48.3495 72.5243 48.3495H69.5025V42.3058C69.5025 39.1001 68.229 36.0256 65.9622 33.7588C63.6953 31.492 60.6209 30.2185 57.4151 30.2185C54.2093 30.2185 51.1348 31.492 48.868 33.7588C46.6012 36.0256 45.3277 39.1001 45.3277 42.3058ZM51.3714 48.3495V42.3058C51.3714 40.703 52.0081 39.1657 53.1415 38.0323C54.275 36.8989 55.8122 36.2622 57.4151 36.2622C59.018 36.2622 60.5552 36.8989 61.6886 38.0323C62.822 39.1657 63.4588 40.703 63.4588 42.3058V48.3495H51.3714ZM57.4151 61.9478C58.6172 61.9478 59.7702 62.4254 60.6202 63.2755C61.4703 64.1255 61.9478 65.2785 61.9478 66.4806C61.9478 67.6828 61.4703 68.8357 60.6202 69.6858C59.7702 70.5358 58.6172 71.0134 57.4151 71.0134C56.2129 71.0134 55.06 70.5358 54.2099 69.6858C53.3599 68.8357 52.8823 67.6828 52.8823 66.4806C52.8823 65.2785 53.3599 64.1255 54.2099 63.2755C55.06 62.4254 56.2129 61.9478 57.4151 61.9478Z" fill="white"/>
</svg>
